<svg version="1.0" xmlns="http://www.w3.org/2000/svg"
 width="240.000000pt" height="229.000000pt" viewBox="0 0 240.000000 229.000000"
 preserveAspectRatio="xMidYMid meet">

<g transform="translate(0.000000,229.000000) scale(0.100000,-0.100000)"
fill="#58A7C6" stroke="none">
<path d="M1066 2280 c-498 -62 -889 -381 -1020 -832 -149 -513 95 -1052 591
-1305 333 -170 731 -178 1081 -22 99 45 247 147 329 228 159 157 255 321 310
529 34 130 42 318 19 449 -72 414 -370 754 -785 894 -158 54 -374 78 -525 59z
m353 -85 c270 -52 523 -206 684 -417 321 -422 282 -990 -94 -1367 -127 -126
-269 -215 -437 -271 -595 -199 -1242 103 -1442 675 -175 502 69 1051 573 1290
103 49 245 90 358 104 92 12 255 5 358 -14z"/>
<path d="M1111 1930 c-13 -11 -31 -20 -40 -20 -10 0 -57 -13 -105 -30 -134
-45 -241 -120 -256 -180 -27 -106 -51 -164 -98 -234 -29 -43 -33 -56 -28 -91
4 -22 8 -62 10 -90 12 -148 15 -167 30 -184 9 -10 16 -27 16 -39 0 -38 19 -72
47 -83 34 -13 44 -28 33 -48 -4 -9 -10 -36 -14 -61 -3 -25 -8 -65 -11 -89 -6
-39 -4 -43 9 -32 12 10 15 4 21 -43 4 -31 12 -56 17 -56 5 0 15 -15 23 -32 8
-18 15 -28 16 -23 0 6 7 -8 13 -30 7 -22 18 -40 25 -40 7 0 19 -11 26 -25 l14
-25 1 25 c1 24 1 24 14 -6 15 -34 36 -53 36 -33 0 18 30 -10 31 -30 0 -11 2
-12 6 -3 4 10 9 9 20 -5 14 -17 14 -17 8 1 -6 19 -5 19 13 3 10 -9 22 -14 26
-10 4 5 14 -1 22 -11 8 -11 14 -15 14 -8 0 6 7 9 17 5 12 -5 14 -3 9 8 -4 8 7
-2 24 -21 17 -19 28 -29 24 -21 -5 11 -3 13 10 8 10 -4 20 -7 22 -7 2 0 4 -8
4 -17 1 -17 2 -17 14 0 14 17 15 17 21 -4 l7 -22 18 23 c15 19 18 20 23 6 6
-15 9 -14 28 5 17 17 23 19 30 8 5 -8 9 -9 9 -4 0 6 10 21 21 35 11 14 18 19
14 12 -8 -15 20 -12 54 7 14 8 21 9 17 2 -11 -18 6 -13 20 7 13 16 14 16 8 -3
-6 -20 -5 -20 10 -1 12 15 16 16 16 5 1 -8 8 -1 16 15 12 21 18 25 24 16 6
-10 14 -4 29 21 16 27 21 30 21 14 1 -18 2 -17 15 5 7 14 19 25 26 25 8 0 19
18 25 40 7 22 13 36 14 30 0 -5 7 5 15 23 8 17 18 32 24 32 5 0 13 26 17 57 6
52 8 55 21 37 13 -17 14 -13 9 36 -12 121 -16 143 -26 155 -12 15 12 45 35 45
20 0 45 40 45 71 0 14 9 37 21 50 13 15 19 32 16 48 -3 14 0 49 6 77 10 49 9
56 -22 124 -30 65 -33 78 -27 131 5 48 3 61 -9 65 -8 4 -15 16 -15 28 0 11 -9
41 -20 65 -11 24 -20 54 -20 66 0 24 -41 63 -124 119 -57 38 -184 75 -284 82
-66 5 -91 11 -105 25 -23 24 -56 24 -86 -1z m223 -83 c41 -18 110 -74 112 -91
1 -6 3 -38 4 -71 l3 -60 7 45 c6 38 7 31 8 -42 2 -96 0 -98 -65 -65 -59 30
-161 60 -242 71 l-84 11 1 50 c0 56 18 143 32 160 15 18 178 12 224 -8z m-274
-24 c-5 -19 -6 -67 -3 -107 l6 -73 -79 -6 c-44 -3 -101 -14 -127 -23 -26 -9
-50 -15 -51 -13 -2 2 -6 20 -10 39 -4 26 -3 30 3 15 13 -27 13 -3 1 30 -7 18
-7 24 1 20 6 -4 9 -1 8 6 -4 25 13 49 45 67 52 28 173 78 194 79 17 1 19 -2
12 -34z m560 -129 c20 -19 45 -34 54 -34 9 0 23 -16 32 -37 14 -33 14 -47 3
-105 -14 -79 -8 -116 29 -177 33 -53 43 -88 33 -115 -6 -15 -10 -11 -26 24
-21 46 -48 70 -80 70 -18 0 -21 5 -18 28 3 15 0 81 -5 148 -10 129 -20 159
-75 221 -27 31 -28 34 -9 24 13 -7 41 -28 62 -47z m-870 -73 c0 -30 -6 -44
-22 -56 -30 -21 -34 -5 -13 51 21 55 35 57 35 5z m348 2 c-21 -2 -55 -2 -75 0
-21 2 -4 4 37 4 41 0 58 -2 38 -4z m-130 -10 c-10 -2 -26 -2 -35 0 -10 3 -2 5
17 5 19 0 27 -2 18 -5z m215 0 c-7 -2 -21 -2 -30 0 -10 3 -4 5 12 5 17 0 24
-2 18 -5z m-276 -9 c-3 -3 -12 -4 -19 -1 -8 3 -5 6 6 6 11 1 17 -2 13 -5z
m348 -4 c25 -11 -1 -11 -35 0 -20 6 -21 8 -5 8 11 0 29 -3 40 -8z m-455 -30
c-8 -5 -19 -10 -25 -10 -5 0 -3 5 5 10 8 5 20 10 25 10 6 0 3 -5 -5 -10z m829
-67 c-1 -78 -6 -74 -12 10 -2 31 0 57 5 57 4 0 8 -30 7 -67z m-909 29 c-13 -9
-40 -30 -60 -47 -19 -16 -28 -21 -20 -11 16 21 89 76 99 75 3 0 -5 -8 -19 -17z
m700 8 c8 -5 11 -10 5 -10 -5 0 -17 5 -25 10 -8 5 -10 10 -5 10 6 0 17 -5 25
-10z m338 -45 c4 -48 -5 -88 -19 -79 -6 3 -8 17 -4 31 4 16 2 22 -5 18 -11 -7
-15 57 -3 69 15 14 28 -2 31 -39z m-501 -22 c-48 -2 -86 -7 -83 -11 2 -4 -14
-5 -37 -3 l-42 5 40 7 c22 3 78 6 125 6 l85 -1 -88 -3z m-174 -20 c-7 -2 -19
-2 -25 0 -7 3 -2 5 12 5 14 0 19 -2 13 -5z m-465 -28 c-6 -14 -13 -23 -15 -21
-5 5 15 46 22 46 3 0 -1 -11 -7 -25z m886 -1 c3 -8 2 -12 -4 -9 -6 3 -10 10
-10 16 0 14 7 11 14 -7z m-107 0 c-3 -3 -12 -4 -19 -1 -8 3 -5 6 6 6 11 1 17
-2 13 -5z m-487 -29 c-7 -9 -15 -13 -19 -10 -3 3 1 10 9 15 21 14 24 12 10 -5z
m414 6 c3 -4 -6 -6 -19 -3 -14 2 -25 6 -25 8 0 8 39 4 44 -5z m209 -22 c37
-19 51 -34 21 -22 -14 5 -15 3 -5 -16 7 -12 11 -27 9 -33 -2 -6 -12 8 -22 30
-13 28 -29 45 -55 56 -20 8 -25 13 -11 9 14 -3 42 -14 63 -24z m-219 5 c9 -3
16 -11 16 -17 0 -8 -4 -7 -12 1 -8 8 -15 9 -25 1 -13 -12 -19 2 -6 14 8 8 8 8
27 1z m476 -45 c11 -21 18 -39 16 -39 -7 0 -56 73 -56 83 0 17 21 -6 40 -44z
m-915 8 c-8 -13 -13 -27 -10 -30 3 -4 0 -3 -6 2 -6 5 -19 7 -28 4 -9 -3 0 6
19 20 43 32 44 32 25 4z m394 -12 c-25 -9 -36 -20 -43 -43 -11 -40 -23 -41
-31 -2 -5 21 -16 34 -37 43 -26 11 -21 12 58 13 78 0 84 -1 53 -11z m-253 -13
c-3 -4 20 -7 51 -5 30 1 65 -3 77 -9 11 -7 24 -11 28 -10 3 1 8 -5 11 -13 4
-10 -2 -12 -24 -10 -16 2 -35 8 -42 12 -6 4 -21 8 -32 9 -82 3 -93 5 -99 19
-4 10 1 15 15 15 11 0 18 -4 15 -8z m349 -2 c27 -6 42 -5 46 2 4 6 12 9 18 7
22 -8 -6 -27 -51 -33 -41 -6 -48 -5 -48 9 0 14 -3 14 -17 -4 -19 -23 -85 -38
-77 -18 3 10 65 43 84 46 3 0 23 -4 45 -9z m-398 -26 c-3 -3 -12 -4 -19 -1 -8
3 -5 6 6 6 11 1 17 -2 13 -5z m-290 -12 c8 -5 6 -17 -8 -42 l-18 -35 -1 43 c0
42 5 48 27 34z m-51 -90 c-8 -7 -25 71 -18 82 3 6 10 -9 14 -33 4 -25 6 -47 4
-49z m501 52 c23 -15 24 -17 8 -34 -17 -19 -43 -17 -58 4 -5 7 -15 2 -28 -14
l-21 -24 -19 24 c-10 14 -19 31 -19 38 0 25 -30 12 -30 -13 0 -21 -3 -24 -17
-17 -20 10 -44 5 -55 -12 -4 -6 -8 1 -8 15 0 32 26 56 65 61 50 5 156 -11 182
-28z m375 22 c30 -7 46 -40 28 -60 -11 -15 -50 -10 -50 5 0 18 -29 8 -35 -12
-10 -30 -38 -19 -50 19 -11 38 -35 43 -35 7 0 -27 -6 -30 -30 -15 -10 6 -22 4
-37 -6 -21 -13 -23 -13 -23 6 0 29 40 50 112 58 64 8 71 8 120 -2z m312 -23
c-4 -16 -11 -35 -16 -43 -8 -12 -8 -11 -4 3 3 10 6 30 6 43 0 13 5 24 10 24 6
0 8 -11 4 -27z m-1064 8 c0 -5 -7 -14 -15 -21 -8 -7 -18 -30 -21 -51 -7 -44
-14 -47 -38 -20 -16 17 -16 21 0 60 14 35 21 41 45 41 16 0 29 -4 29 -9z m994
-32 c13 -32 14 -44 5 -55 -17 -21 -39 -17 -39 7 0 12 -9 37 -21 55 l-21 34 30
0 c26 0 32 -6 46 -41z m-566 -105 c23 -16 31 -54 11 -54 -6 0 -9 7 -5 15 10
27 -37 29 -77 3 -28 -18 -36 -29 -34 -48 2 -20 9 -26 37 -30 20 -4 42 -10 49
-15 22 -13 84 -15 99 -3 7 6 30 14 50 17 30 5 38 11 40 31 2 19 -6 30 -33 48
-43 27 -75 22 -75 -13 0 -37 -15 -37 -17 0 -2 25 3 38 19 49 34 24 47 20 89
-26 54 -59 54 -102 -1 -113 -11 -2 -28 -9 -37 -15 -15 -9 -10 -10 25 -7 28 4
40 2 35 -5 -3 -7 -1 -8 6 -4 6 4 9 11 6 16 -3 5 -1 11 5 15 6 3 10 -3 10 -15
0 -12 4 -29 9 -38 24 -48 17 -131 -9 -92 -8 13 -10 13 -10 -1 0 -9 11 -24 25
-33 14 -9 25 -21 25 -27 0 -6 -14 1 -31 15 -17 14 -36 26 -42 27 -70 4 -174 3
-171 -2 6 -10 -17 -17 -46 -15 -14 1 -28 -3 -32 -9 -4 -6 -8 -1 -8 10 0 11 -8
29 -17 40 l-16 20 8 -20 c4 -11 8 -27 9 -35 1 -9 6 -21 10 -29 7 -10 3 -11
-14 -6 -15 5 -20 3 -16 -3 3 -6 -4 -12 -16 -14 -17 -2 -23 -10 -23 -28 0 -22
5 -25 37 -25 44 0 40 -14 -5 -16 -23 -1 -26 -3 -10 -6 12 -2 37 0 56 5 28 8
34 7 33 -6 -1 -9 8 -16 22 -17 12 -1 22 2 22 6 0 4 7 9 14 12 11 4 13 1 10
-11 -5 -15 -4 -15 6 1 6 9 15 15 20 12 4 -3 11 3 15 13 7 16 8 15 15 -3 7 -17
9 -17 9 -2 1 20 17 23 25 5 3 -7 4 -4 3 7 -2 13 -9 19 -20 17 -9 -2 -17 2 -17
8 0 6 -8 4 -17 -6 -11 -11 -18 -13 -21 -5 -2 6 -8 8 -14 5 -6 -4 -9 -1 -6 7 3
8 12 13 22 11 9 -2 16 2 16 8 0 7 6 8 19 0 11 -5 22 -6 25 -1 3 4 18 6 32 3
19 -3 25 -1 20 7 -5 7 1 11 16 12 17 1 18 3 6 6 -10 2 -18 9 -18 15 0 5 7 7
16 4 9 -3 20 -6 26 -6 6 0 8 -6 5 -13 -3 -9 4 -12 24 -11 23 2 33 -4 44 -26
13 -26 13 -33 -10 -84 -25 -58 -34 -68 -31 -40 0 9 -7 18 -16 19 -10 2 -18 -1
-18 -6 0 -6 -4 -8 -9 -5 -5 3 -12 -1 -15 -10 -5 -14 -9 -14 -23 -3 -15 12 -16
12 -11 -3 7 -17 -7 -19 -31 -4 -11 7 -13 5 -7 -9 6 -16 4 -16 -11 -4 -11 9
-14 10 -9 2 8 -14 7 -14 -41 -18 -18 -1 -33 1 -33 6 0 4 -8 6 -17 5 -10 -2
-24 4 -31 13 -8 9 -10 10 -7 3 6 -11 3 -12 -12 -3 -11 6 -23 7 -27 3 -4 -3 -4
2 0 13 7 18 6 18 -9 6 -14 -11 -18 -11 -23 2 -6 16 -20 17 -41 4 -9 -6 -11 -3
-6 9 4 10 2 15 -4 11 -15 -9 -47 63 -34 76 8 8 11 6 11 -5 0 -9 4 -19 9 -23 6
-3 6 7 0 27 -7 26 -5 35 8 48 15 14 16 13 4 -2 -18 -24 -6 -23 29 3 l29 22
-25 32 c-23 31 -24 33 -8 84 11 39 19 51 30 47 8 -3 13 -2 10 3 -4 5 13 7 36
4 35 -3 40 -2 25 7 -25 16 -67 22 -67 10 0 -5 -5 -10 -12 -10 -9 0 -9 3 -1 11
6 6 9 25 7 43 -4 26 2 38 34 74 43 46 56 50 90 26z m456 -9 c3 -8 1 -15 -4
-15 -6 0 -10 7 -10 15 0 8 2 15 4 15 2 0 6 -7 10 -15z m-977 -27 c-3 -7 -5 -2
-5 12 0 14 2 19 5 13 2 -7 2 -19 0 -25z m144 -20 c-8 -20 -9 -18 -8 15 1 24 4
32 9 23 4 -8 4 -25 -1 -38z m827 -3 c-3 -3 -9 2 -12 12 -6 14 -5 15 5 6 7 -7
10 -15 7 -18z m10 -60 c-2 -12 -6 -11 -16 6 -8 11 -9 18 -3 14 6 -3 12 2 12
12 1 17 2 17 6 1 2 -10 3 -25 1 -33z m-836 21 c6 4 5 -2 -1 -15 -16 -28 -21
-26 -20 7 0 15 3 21 6 14 2 -6 9 -9 15 -6z m230 -33 c-6 -10 -16 -33 -23 -51
-7 -20 -17 -31 -25 -28 -7 3 -15 -4 -17 -17 l-4 -22 -2 22 c0 12 10 30 24 41
14 11 25 28 25 39 0 19 20 47 28 39 2 -2 -1 -12 -6 -23z m-325 11 c-3 -3 -12
-4 -19 -1 -8 3 -5 6 6 6 11 1 17 -2 13 -5z m131 -5 c-10 -6 -18 -15 -18 -20 0
-6 4 -8 9 -5 5 4 7 -4 3 -16 -3 -14 -2 -19 6 -14 7 4 12 2 12 -3 0 -15 -11
-13 -33 3 -15 11 -16 19 -8 34 6 11 8 21 6 24 -2 2 6 5 18 5 19 2 20 1 5 -8z
m570 -25 c-3 -14 -5 -12 -10 9 -3 19 -2 25 4 19 6 -6 8 -18 6 -28z m207 24 c4
-3 2 -9 -3 -12 -5 -3 -15 1 -21 8 -10 11 -9 14 3 12 9 -1 18 -5 21 -8z m-2
-31 c4 3 7 1 7 -5 0 -18 -27 -14 -34 4 -5 13 -4 14 7 6 8 -7 17 -9 20 -5z
m-856 -39 c-3 -8 -6 -5 -6 6 -1 11 2 17 5 13 3 -3 4 -12 1 -19z m683 1 c0 -18
-2 -19 -15 -9 -8 7 -15 16 -15 21 0 5 7 9 15 9 9 0 15 -9 15 -21z m145 11 c3
-5 1 -10 -4 -10 -6 0 -11 5 -11 10 0 6 2 10 4 10 3 0 8 -4 11 -10z m25 -27
c-1 -24 -2 -26 -11 -10 -5 9 -7 22 -4 27 10 17 15 11 15 -17z m-780 10 c0 -5
-5 -15 -10 -23 -8 -12 -10 -11 -10 8 0 12 5 22 10 22 6 0 10 -3 10 -7z m-43
-25 c-3 -8 -6 -5 -6 6 -1 11 2 17 5 13 3 -3 4 -12 1 -19z m663 -38 l-11 -25 6
25 c2 14 5 34 6 45 2 19 2 19 6 0 2 -12 -1 -32 -7 -45z m135 50 c3 -5 1 -10
-4 -10 -6 0 -11 5 -11 10 0 6 2 10 4 10 3 0 8 -4 11 -10z m-711 -10 c-12 -12
-6 -70 7 -70 5 0 8 -15 8 -32 -1 -25 -3 -28 -6 -10 -4 21 -6 22 -16 8 -10 -13
-11 -6 -9 36 2 39 0 49 -7 38 -6 -8 -11 -11 -11 -6 0 10 30 46 39 46 3 0 0 -5
-5 -10z m34 -26 c-3 -14 -5 -12 -10 9 -3 19 -2 25 4 19 6 -6 8 -18 6 -28z
m618 21 c-3 -20 -16 -31 -16 -13 0 13 8 28 16 28 1 0 1 -7 0 -15z m54 -29 c0
-6 -5 -4 -10 4 -7 11 -10 5 -10 -23 0 -21 -7 -45 -15 -53 -13 -14 -15 -12 -15
16 0 18 4 29 10 25 6 -4 10 9 10 31 0 31 2 35 15 24 8 -7 15 -18 15 -24z
m-590 -42 c0 -14 -14 -33 -21 -28 -15 9 -10 31 6 31 8 0 15 -1 15 -3z m461
-27 c-8 -8 -11 -7 -11 4 0 20 13 34 18 19 3 -7 -1 -17 -7 -23z m-688 -33 c-5
-15 -7 -15 -15 0 -5 9 -6 26 -2 39 l7 22 8 -23 c5 -12 6 -29 2 -38z m500 39
c-7 -2 -21 -2 -30 0 -10 3 -4 5 12 5 17 0 24 -2 18 -5z m417 -25 c-1 -31 -1
-32 -15 -14 -17 23 -20 40 -5 31 6 -3 10 -1 10 4 0 6 2 11 5 11 3 0 5 -15 5
-32z m-362 10 c-3 -7 -13 -14 -24 -15 -17 -2 -17 -1 1 4 l20 6 -20 8 c-19 7
-18 8 3 8 15 1 22 -4 20 -11z m202 -83 c-10 -44 -16 -51 -24 -30 -3 9 -2 13 4
10 6 -4 8 17 4 57 -5 61 -5 62 10 31 10 -22 12 -42 6 -68z m-603 30 c-3 -31
-2 -55 4 -55 5 0 9 -8 9 -17 -1 -16 -2 -16 -16 2 -9 13 -12 30 -8 49 4 19 3
26 -5 22 -7 -5 -7 2 0 24 16 46 22 36 16 -25z m320 44 c-21 -5 -47 -14 -58
-19 -10 -6 -19 -8 -19 -5 0 10 64 34 90 34 18 -1 14 -3 -13 -10z m230 -36 c-3
-10 -5 -2 -5 17 0 19 2 27 5 18 2 -10 2 -26 0 -35z m-510 0 c-3 -10 -5 -4 -5
12 0 17 2 24 5 18 2 -7 2 -21 0 -30z m159 -8 c-1 -8 -6 -18 -11 -22 -4 -5 -5
-2 0 6 6 11 4 13 -11 7 -10 -4 -32 -10 -49 -12 -26 -4 -25 -3 8 10 21 8 41 17
44 20 11 11 21 6 19 -9z m68 -23 c2 -4 -4 -8 -15 -8 -10 0 -19 4 -19 8 0 10
27 10 34 0z m-389 -42 c7 -24 7 -24 -9 -5 -8 11 -16 27 -16 35 0 20 16 1 25
-30z m852 13 c-10 -22 -13 -24 -15 -9 -2 10 2 22 10 27 19 12 19 12 5 -18z
m-162 -74 c-6 -17 -9 -19 -16 -8 -5 8 -9 19 -9 24 0 6 5 3 10 -5 8 -13 10 -12
10 4 0 11 3 17 6 13 3 -3 3 -15 -1 -28z m-535 11 c0 13 1 13 10 0 5 -8 10 -19
10 -25 0 -5 -5 -3 -10 5 -9 13 -10 13 -10 0 0 -13 -1 -13 -10 0 -5 8 -10 20
-10 25 0 6 5 3 10 -5 9 -13 10 -13 10 0z m667 -12 c-3 -8 -6 -5 -6 6 -1 11 2
17 5 13 3 -3 4 -12 1 -19z m-617 -62 c1 -21 1 -21 15 -2 11 15 15 16 15 5 0
-8 -6 -23 -12 -32 -12 -14 -15 -13 -29 17 -14 27 -14 33 -3 33 8 0 14 -10 14
-21z m450 14 c0 -4 -7 -13 -15 -20 -8 -7 -15 -20 -15 -28 0 -13 -3 -12 -15 4
-8 10 -14 26 -14 34 0 11 3 10 14 -4 15 -20 15 -20 15 0 0 12 7 21 15 21 8 0
15 -4 15 -7z m-394 -57 c-3 -4 -6 0 -6 8 0 11 -2 11 -10 -1 -8 -13 -10 -13
-10 1 0 24 13 32 23 14 5 -9 6 -19 3 -22z m41 -1 c7 -7 13 -21 12 -30 0 -14
-2 -13 -9 3 -5 11 -9 16 -9 10 -2 -18 -21 20 -20 40 0 14 2 16 6 5 4 -8 12
-21 20 -28z m80 32 c-3 -3 -12 -4 -19 -1 -8 3 -5 6 6 6 11 1 17 -2 13 -5z m90
0 c-3 -3 -12 -4 -19 -1 -8 3 -5 6 6 6 11 1 17 -2 13 -5z m123 -18 c0 -7 -6
-13 -14 -13 -8 0 -11 8 -8 19 5 19 22 15 22 -6z m-167 7 c-7 -2 -19 -2 -25 0
-7 3 -2 5 12 5 14 0 19 -2 13 -5z m118 -39 c-7 -30 -9 -33 -11 -14 -1 23 -2
23 -10 5 -5 -11 -9 -14 -9 -7 -1 14 30 65 36 59 2 -2 -1 -22 -6 -43z m-177
-34 c4 -25 3 -31 -4 -20 -5 8 -10 26 -10 39 0 32 6 24 14 -19z m30 -22 c-10
-16 -25 17 -17 38 6 15 7 15 15 -5 4 -13 5 -28 2 -33z m66 -5 c-10 -16 -11
-15 -6 7 3 14 6 32 7 40 1 8 4 5 6 -7 2 -12 -1 -30 -7 -40z m-17 8 c-4 -17 -8
-19 -14 -9 -12 18 -11 31 1 23 6 -3 10 -1 10 6 0 7 2 10 5 8 2 -3 2 -15 -2
-28z"/>
<path d="M1377 1774 c-14 -15 -6 -34 14 -34 14 0 19 5 17 17 -3 18 -20 27 -31
17z"/>
<path d="M819 1733 c-13 -16 -12 -17 4 -4 9 7 17 15 17 17 0 8 -8 3 -21 -13z"/>
<path d="M1140 836 c0 -14 4 -27 8 -30 5 -3 6 8 4 25 -5 35 -12 38 -12 5z"/>
<path d="M1092 828 c3 -7 13 -15 24 -17 16 -3 17 -1 5 13 -16 19 -34 21 -29 4z"/>
<path d="M1355 710 c3 -5 8 -10 11 -10 2 0 4 5 4 10 0 6 -5 10 -11 10 -5 0 -7
-4 -4 -10z"/>
<path d="M1306 701 c-4 -5 -2 -12 3 -15 5 -4 12 -2 15 3 4 5 2 12 -3 15 -5 4
-12 2 -15 -3z"/>
</g>
</svg>